<?xml version="1.0" encoding="UTF-8"?><svg xmlns="http://www.w3.org/2000/svg" viewBox="0 0 671 144"><defs><style>.d{fill:#ffdc29;}</style></defs><g id="a"/><g id="b"><g id="c"><g><polygon class="d" points="594 144 0 144 89 0 671 0 594 144"/><g><path d="M170.66,48.7l11.45,9.89c-9.46,8.02-18.72,15.87-28.54,24.2h40.36v13.83H73.39v-13.65h39.66l.31-.56c-9.3-7.84-18.59-15.68-28.17-23.76,3.99-3.39,7.75-6.6,11.68-9.95,9.37,7.87,18.71,15.72,28.47,23.91V38.86h16.57v34.08c9.92-8.37,19.29-16.27,28.74-24.25Z"/><path d="M392.98,42.14h10.71v18.68c2.99-3.03,6.49-4.51,10.42-4.94,6.68-.73,12.59,2.56,15.52,8.69,3.39,7.1,3.53,14.5,.77,21.72-4.34,11.34-17.99,13.93-27.09,5.04-.1,1.51-.18,2.76-.28,4.34-3.04,0-6.02,.07-8.99-.09-.39-.02-1-1.24-1.02-1.92-.1-4.04-.05-8.09-.05-12.13,0-12.21,0-24.42,0-36.63,0-.85,0-1.7,0-2.77Zm9.87,34.42c.78,2.57,1.2,5.46,2.5,7.87,3.17,5.87,10.97,5.84,14.19,0,2.77-5.02,2.64-10.34,.42-15.54-1.34-3.15-3.78-4.96-7.36-5.02-3.65-.06-6.33,1.59-7.68,4.85-.98,2.35-1.33,4.97-2.07,7.85Z"/><path d="M306.49,61.18v-18.94h10.63c.05,.79,.14,1.56,.14,2.33,0,16.09-.05,32.18,.05,48.26,.01,2.3-.63,3.09-2.91,2.92-2.28-.17-4.58-.04-7.14-.04-.11-1.44-.22-2.79-.35-4.53-5.05,5.89-11.2,6.71-17.67,4.37-2.73-.99-5.63-3.03-7.22-5.41-5.66-8.47-6.04-17.61-1.08-26.51,4.97-8.9,17.69-10.92,25.54-2.45Zm.54,15.51c-.21-1.96-.25-3.56-.56-5.1-1.05-5.16-4.14-7.77-8.96-7.71-4.48,.06-8.05,2.99-8.6,7.9-.38,3.39-.18,6.95,.44,10.31,.75,4.04,4.49,6.61,8.49,6.6,4.13-.01,7.13-2.3,8.25-6.51,.51-1.9,.68-3.88,.94-5.48Z"/><path d="M239.92,95.7c-4.27,0-8.13,.07-11.98-.07-.63-.02-1.38-.93-1.8-1.61-3.18-5.09-6.29-10.23-9.52-15.51-2.67,1.91-4.87,3.67-4.41,7.45,.39,3.11,.08,6.3,.08,9.61h-10.38V42.25h10.25v28.23c.75-.48,1.16-.65,1.44-.94,3.63-3.76,7.2-7.58,10.9-11.26,.75-.74,1.99-1.31,3.04-1.36,3.36-.17,6.73-.06,10.04-.06-3.22,3.42-6.21,6.87-9.48,10.02-4.26,4.1-4.39,4.02-1.2,8.9,3.86,5.9,7.78,11.75,11.67,17.63,.41,.63,.76,1.29,1.35,2.31Z"/><path d="M389.24,95.71c-2.89,0-5.91,.19-8.87-.12-.86-.09-1.56-1.62-2.6-2.79,.16-.07-.35,.07-.74,.36-5.44,3.88-11.41,4.35-17.62,2.53-4.46-1.31-7.14-5.24-7.23-10.07-.11-5.32,2.03-9.21,6.65-10.63,3.9-1.2,8.04-1.63,12.07-2.41,1.39-.27,2.8-.51,4.16-.87,1.88-.5,3.05-1.66,2.95-3.74-.11-2.13-.86-4.05-3.13-4.48-2.06-.39-4.36-.75-6.3-.2-1.58,.45-3.32,2.02-4,3.53-.7,1.55-1.31,2.03-2.86,1.98-2.68-.09-5.36-.02-8.02-.02-.3-4.67,2.3-8.89,7.08-10.89,7-2.92,14.22-2.92,21.32-.4,4.38,1.55,6.65,4.82,6.57,9.65-.1,5.7-.09,11.41,0,17.11,.06,3.69,.35,7.38,.56,11.46Zm-11.08-18.53c-2,.45-3.5,.83-5.02,1.12-1.55,.3-3.13,.43-4.66,.79-1.14,.27-2.3,.63-3.3,1.21-2.78,1.63-3.19,6-.83,7.94,4,3.29,11.65,1.22,13.07-3.74,.65-2.26,.51-4.75,.74-7.33Z"/><path d="M240.05,56.85c3.49,0,6.66-.11,9.81,.09,.68,.04,1.62,1.09,1.89,1.86,2.63,7.63,5.15,15.29,7.7,22.95,.12,.37,.28,.72,.62,1.59,.77-2.27,1.43-4.09,2.01-5.92,1.95-6.11,3.94-12.2,5.77-18.34,.53-1.79,1.4-2.36,3.2-2.27,2.68,.14,5.37,.04,8.51,.04-.86,2.44-1.58,4.64-2.39,6.8-4.64,12.45-9.29,24.89-13.96,37.32-2.11,5.62-5.73,8.11-11.75,8.14-2.52,.01-5.03,0-7.73,0v-8.86c1.51,.1,2.91,.25,4.31,.27,4.83,.07,6.95-2.85,5.32-7.44-1.72-4.84-3.59-9.63-5.39-14.45-2.44-6.52-4.87-13.04-7.29-19.56-.21-.58-.34-1.19-.62-2.21Z"/><path d="M544.87,83.49c2.77-8.61,5.4-16.56,7.85-24.57,.53-1.74,1.38-2.16,3.01-2.1,2.74,.1,5.49,.03,8.67,.03-1.74,4.72-3.33,9.09-4.94,13.44-3.82,10.32-7.65,20.63-11.48,30.94-1.85,4.98-5.69,7.75-11.01,7.88-2.38,.06-4.76,.06-7.13-.09-.54-.03-1.46-.78-1.49-1.24-.15-2.42-.07-4.86-.07-7.52,1.72,.09,3.21,.09,4.67,.26,4.84,.54,6.61-3.42,5.3-7.06-1.79-4.99-3.65-9.96-5.5-14.92-2.49-6.67-5.01-13.33-7.51-19.99-.16-.43-.24-.89-.45-1.68,3.57,0,6.94-.08,10.3,.08,.52,.03,1.21,1.1,1.45,1.81,2.52,7.42,4.96,14.86,7.43,22.3,.19,.58,.42,1.16,.9,2.44Z"/><path d="M524.48,95.53h-10.24c0-5.64,.04-11.09-.02-16.55-.03-3.01,0-6.04-.38-9.01-.49-3.83-2.28-5.46-5.55-5.67-4.58-.3-7.3,1.19-8.33,4.93-.56,2.03-.81,4.2-.85,6.31-.11,5.87-.04,11.73-.04,17.6,0,.77,0,1.54,0,2.45h-10.37V57.02h9.86v4.98c1.41-1.36,2.38-2.62,3.64-3.46,5.25-3.55,10.85-3.67,16.48-1.05,4.23,1.97,5.78,5.96,5.91,10.17,.3,9.11,.13,18.23,.15,27.34,0,.14-.13,.27-.26,.52Z"/><path d="M433.37,83.09h9.61c1.11,5.97,6.61,7.56,12.02,5.88,1.89-.59,3.36-1.84,3.44-4.06,.08-2.22-1.44-3.3-3.24-3.87-2.86-.91-5.8-1.59-8.7-2.38-1.6-.44-3.23-.81-4.8-1.34-4.05-1.38-7.34-3.56-7.61-8.34-.27-4.72,1.25-8.82,5.74-10.81,7.69-3.42,15.52-3.66,23.01,.67,3.37,1.95,4.87,5.22,5.2,9.36-3.1,0-6.02,.06-8.94-.06-.48-.02-1.21-.71-1.35-1.22-.59-2.11-2.02-3.33-4.03-3.52-2.24-.21-4.55-.2-6.75,.19-.85,.15-1.98,1.56-2.05,2.46-.08,1.03,.61,2.68,1.45,3.11,2.07,1.07,4.4,1.66,6.66,2.32,3.11,.91,6.35,1.45,9.36,2.61,7.47,2.89,9.3,12.44,3.32,17.81-1.97,1.77-4.62,3.11-7.19,3.84-5.52,1.57-11.16,1.29-16.61-.61-5.48-1.9-8.63-6.36-8.54-12.04Z"/><path d="M349.08,95.6h-10.22V42.05h10.22v53.55Z"/><path d="M602.87,75.96c.4,9.73-7.63,20.03-21.23,19.72-11.23-.25-20-9.29-19.73-20.38,.27-11.29,9.42-19.73,21.11-19.49,11.46,.24,20.09,9,19.85,20.15Zm-35.42-.15c.03,8.97,6.42,15.64,14.98,15.66,8.54,.01,15.15-6.94,15.1-15.88-.05-8.8-6.63-15.5-15.21-15.48-8.57,.02-14.9,6.7-14.86,15.71Z"/><path d="M592.6,71.86c-1.46,.13-2.96,0-3.96,0-.53,0-.79-1.25-1.2-1.88-2.19-3.42-8.3-2.49-9.68,1.48-.78,2.24-.74,5.02-.25,7.38,.54,2.62,2.68,4.23,5.54,4.41,2.62,.17,4.34-1.05,5.78-4.06h3.72c-.04,4.45-4.1,8.14-8.97,8.23-6.7,.13-11.39-4.23-11.79-10.96-.41-6.96,3.62-12.09,9.98-12.69,5.96-.56,10.09,2.49,10.84,8.07Z"/></g></g></g></g></svg>